<svg width="426" height="124" viewBox="0 0 426 124" fill="none" xmlns="http://www.w3.org/2000/svg">
<g clip-path="url(#clip0_1876_16295)">
<path d="M103.58 26.0642L61.4196 1.72321C57.4448 -0.571799 52.5552 -0.571799 48.5804 1.72321L6.41961 26.0642C2.4448 28.3539 0 32.5962 0 37.1808V85.8629C0 90.4475 2.4448 94.6898 6.41961 96.9795L48.5804 121.321C52.5552 123.616 57.4448 123.616 61.4196 121.321L103.58 96.9795C107.555 94.6845 110 90.4475 110 85.8629V37.1808C110 32.5962 107.555 28.3539 103.58 26.0642ZM57.3164 26.0321L84.7121 73.4837C85.5734 74.9763 84.7388 76.1853 84.4606 76.5223C84.1825 76.8594 83.1553 77.9133 81.529 77.3515L59.1727 69.6748C56.4819 68.7493 53.5235 68.7493 50.8326 69.6748L28.4763 77.3515C26.85 77.9133 25.8175 76.8594 25.5447 76.5223C25.2665 76.1853 24.432 74.9763 25.2933 73.4837L52.6889 26.0321C53.3844 24.8231 54.5399 24.6947 55.0053 24.6947C55.4708 24.6947 56.6263 24.8231 57.3218 26.0321H57.3164ZM9.16399 74.9335L9.0035 43.4667C8.9821 39.4117 11.1487 35.6615 14.6688 33.6501L42.0003 18.0558C43.4233 17.2426 45.0068 18.8315 44.183 20.2545L12.1545 75.7252C11.336 77.1429 9.16934 76.5705 9.15864 74.9335H9.16399ZM87.7721 93.973L61.1735 108.545C57.3325 110.653 52.6782 110.653 48.8318 108.545L22.2332 93.973C20.623 93.0903 20.7995 90.7257 22.5168 90.0891L50.5437 79.7161C53.4218 78.6515 56.5835 78.6515 59.4563 79.7161L87.4832 90.0891C89.2058 90.7257 89.377 93.0903 87.7667 93.973H87.7721ZM100.836 74.9388C100.825 76.5758 98.6587 77.1483 97.8402 75.7306L65.8117 20.2598C64.9932 18.8422 66.5767 17.2533 67.9944 18.0611L95.3258 33.6554C98.8459 35.6669 101.013 39.417 100.991 43.4721L100.831 74.9388H100.836Z" fill="#1769FF"/>
</g>
<path d="M381.793 70.6463V69.2913C381.793 64.8876 382.668 61.1332 384.418 58.028C386.168 54.8664 388.483 52.4669 391.363 50.8297C394.298 49.1359 397.488 48.2891 400.932 48.2891C404.771 48.2891 407.679 48.9666 409.655 50.3215C411.631 51.6765 413.07 53.088 413.974 54.5559H415.498V49.4747H425.999V103.932C425.999 106.811 425.152 109.097 423.459 110.791C421.765 112.541 419.507 113.416 416.684 113.416H402.5V104.101H412.958C414.538 104.101 415.329 103.254 415.329 101.56V85.6357H413.804C413.24 86.5391 412.449 87.4706 411.433 88.4304C410.417 89.3337 409.062 90.0959 407.368 90.7169C405.674 91.338 403.529 91.6485 400.932 91.6485C397.488 91.6485 394.298 90.8298 391.363 89.1926C388.483 87.4988 386.168 85.0994 384.418 81.9942C382.668 78.8326 381.793 75.05 381.793 70.6463ZM403.981 82.333C407.255 82.333 409.994 81.2885 412.195 79.1996C414.397 77.1107 415.498 74.1749 415.498 70.3922V69.5453C415.498 65.7062 414.397 62.7704 412.195 60.738C410.05 58.649 407.312 57.6046 403.981 57.6046C400.706 57.6046 397.968 58.649 395.766 60.738C393.564 62.7704 392.463 65.7062 392.463 69.5453V70.3922C392.463 74.1749 393.564 77.1107 395.766 79.1996C397.968 81.2885 400.706 82.333 403.981 82.333Z" fill="#1769FF"/>
<path d="M331.643 91.4788V49.4744H342.144V54.979H343.668C344.346 53.5111 345.616 52.1279 347.479 50.8293C349.342 49.4744 352.165 48.7969 355.948 48.7969C359.222 48.7969 362.073 49.5591 364.501 51.0834C366.985 52.5513 368.905 54.612 370.26 57.2655C371.615 59.8626 372.292 62.9113 372.292 66.4116V91.4788H361.622V67.2585C361.622 64.0969 360.831 61.7257 359.25 60.1448C357.726 58.564 355.524 57.7736 352.645 57.7736C349.37 57.7736 346.83 58.8745 345.023 61.0764C343.216 63.2218 342.313 66.2423 342.313 70.1378V91.4788H331.643Z" fill="#1769FF"/>
<path d="M295.726 92.6647C292.734 92.6647 290.052 92.1566 287.681 91.1404C285.31 90.0677 283.419 88.5433 282.007 86.5673C280.652 84.5348 279.975 82.0789 279.975 79.1996C279.975 76.3202 280.652 73.9208 282.007 72.0012C283.419 70.0252 285.338 68.5573 287.766 67.5976C290.25 66.5813 293.073 66.0732 296.234 66.0732H307.752V63.702C307.752 61.726 307.131 60.1169 305.889 58.8749C304.647 57.5763 302.671 56.9271 299.961 56.9271C297.307 56.9271 295.331 57.5481 294.033 58.7902C292.734 59.9758 291.887 61.5284 291.492 63.4479L281.668 60.1452C282.346 57.9998 283.419 56.052 284.886 54.3018C286.411 52.4952 288.415 51.0555 290.899 49.9828C293.44 48.8536 296.517 48.2891 300.13 48.2891C305.663 48.2891 310.038 49.6723 313.256 52.4387C316.474 55.2051 318.083 59.2136 318.083 64.4642V80.1311C318.083 81.8249 318.874 82.6717 320.455 82.6717H323.842V91.4791H316.728C314.64 91.4791 312.918 90.971 311.563 89.9548C310.208 88.9385 309.53 87.5835 309.53 85.8898V85.8051H307.921C307.695 86.4826 307.187 87.3859 306.397 88.5151C305.606 89.5878 304.364 90.5476 302.671 91.3944C300.977 92.2413 298.662 92.6647 295.726 92.6647ZM297.589 84.0267C300.582 84.0267 303.009 83.2081 304.872 81.5708C306.792 79.8771 307.752 77.647 307.752 74.8806V74.0337H296.997C295.021 74.0337 293.468 74.4571 292.339 75.304C291.21 76.1509 290.645 77.3365 290.645 78.8608C290.645 80.3852 291.238 81.6273 292.424 82.587C293.609 83.5468 295.331 84.0267 297.589 84.0267Z" fill="#1769FF"/>
<path d="M255.352 91.4776V57.0305H244.279V47.8914H255.352V39.8069C255.352 36.8191 256.23 34.4465 257.988 32.689C259.804 30.8729 262.147 29.9648 265.018 29.9648H276.442V39.1039H268.884C267.244 39.1039 266.424 39.9826 266.424 41.7402V47.8914H277.848V57.0305H266.424V91.4776H255.352Z" fill="#1769FF"/>
<path d="M221.574 92.6647C217.396 92.6647 213.698 91.7896 210.48 90.0394C207.318 88.2328 204.834 85.7204 203.028 82.5023C201.277 79.2278 200.402 75.3887 200.402 70.985V69.9688C200.402 65.5651 201.277 61.7542 203.028 58.5361C204.778 55.2616 207.234 52.7492 210.395 50.999C213.557 49.1924 217.227 48.2891 221.405 48.2891C225.526 48.2891 229.111 49.2206 232.16 51.0837C235.208 52.8904 237.58 55.4309 239.273 58.7055C240.967 61.9236 241.814 65.678 241.814 69.9688V73.6103H211.242C211.355 76.4896 212.428 78.8326 214.46 80.6393C216.493 82.4459 218.977 83.3492 221.913 83.3492C224.905 83.3492 227.107 82.7 228.518 81.4014C229.93 80.1029 231.002 78.6632 231.736 77.0824L240.459 81.6555C239.669 83.1234 238.511 84.7324 236.987 86.4826C235.519 88.1763 233.543 89.6442 231.059 90.8863C228.575 92.0719 225.413 92.6647 221.574 92.6647ZM211.327 65.6498H230.974C230.748 63.2221 229.76 61.2743 228.01 59.8064C226.316 58.3385 224.086 57.6046 221.32 57.6046C218.441 57.6046 216.154 58.3385 214.46 59.8064C212.767 61.2743 211.722 63.2221 211.327 65.6498Z" fill="#1769FF"/>
<path d="M144 91.4758V81.6521H151.791V42.0189H144V32.1953H168.39C176.35 32.1953 182.391 34.2278 186.513 38.2927C190.69 42.3012 192.779 48.2857 192.779 56.2462V67.4248C192.779 75.3854 190.69 81.3981 186.513 85.463C182.391 89.4715 176.35 91.4758 168.39 91.4758H144ZM162.97 81.3134H168.559C173.076 81.3134 176.378 80.1278 178.467 77.7566C180.556 75.3854 181.601 72.0544 181.601 67.7636V55.9075C181.601 51.5603 180.556 48.2293 178.467 45.9145C176.378 43.5433 173.076 42.3577 168.559 42.3577H162.97V81.3134Z" fill="#1769FF"/>
<path d="M393.121 113.685C392.226 113.685 391.455 113.503 390.809 113.141C390.167 112.774 389.672 112.257 389.325 111.588C388.977 110.916 388.804 110.121 388.804 109.203C388.804 108.308 388.977 107.523 389.325 106.846C389.672 106.17 390.162 105.643 390.792 105.266C391.427 104.888 392.171 104.699 393.024 104.699C393.599 104.699 394.133 104.792 394.628 104.977C395.126 105.158 395.561 105.432 395.931 105.798C396.305 106.165 396.596 106.625 396.803 107.181C397.011 107.732 397.115 108.378 397.115 109.118V109.781H389.767V108.285H394.843C394.843 107.938 394.768 107.63 394.616 107.362C394.465 107.094 394.256 106.884 393.988 106.733C393.723 106.578 393.415 106.501 393.064 106.501C392.698 106.501 392.373 106.586 392.09 106.756C391.81 106.922 391.591 107.147 391.432 107.43C391.274 107.709 391.193 108.021 391.189 108.365V109.787C391.189 110.217 391.268 110.589 391.427 110.903C391.589 111.216 391.818 111.458 392.112 111.628C392.407 111.798 392.756 111.883 393.16 111.883C393.429 111.883 393.674 111.845 393.897 111.77C394.12 111.694 394.311 111.581 394.469 111.43C394.628 111.279 394.749 111.094 394.832 110.875L397.064 111.022C396.951 111.558 396.718 112.027 396.367 112.427C396.02 112.823 395.57 113.133 395.019 113.356C394.471 113.575 393.838 113.685 393.121 113.685Z" fill="#1769FF"/>
<path d="M383.032 113.516V104.814H385.372V106.332H385.462C385.621 105.792 385.887 105.384 386.261 105.109C386.635 104.829 387.066 104.689 387.553 104.689C387.674 104.689 387.804 104.697 387.944 104.712C388.083 104.727 388.206 104.748 388.312 104.774V106.916C388.199 106.882 388.042 106.852 387.842 106.825C387.642 106.799 387.458 106.786 387.292 106.786C386.937 106.786 386.62 106.863 386.34 107.018C386.065 107.169 385.846 107.381 385.683 107.652C385.525 107.924 385.445 108.238 385.445 108.593V113.516H383.032Z" fill="#1769FF"/>
<path d="M377.463 113.685C376.567 113.685 375.797 113.503 375.151 113.141C374.509 112.774 374.014 112.257 373.667 111.588C373.319 110.916 373.146 110.121 373.146 109.203C373.146 108.308 373.319 107.523 373.667 106.846C374.014 106.17 374.503 105.643 375.134 105.266C375.769 104.888 376.513 104.699 377.366 104.699C377.94 104.699 378.475 104.792 378.97 104.977C379.468 105.158 379.903 105.432 380.273 105.798C380.647 106.165 380.937 106.625 381.145 107.181C381.353 107.732 381.457 108.378 381.457 109.118V109.781H374.109V108.285H379.185C379.185 107.938 379.109 107.63 378.958 107.362C378.807 107.094 378.598 106.884 378.329 106.733C378.065 106.578 377.757 106.501 377.406 106.501C377.04 106.501 376.715 106.586 376.431 106.756C376.152 106.922 375.933 107.147 375.774 107.43C375.616 107.709 375.534 108.021 375.531 108.365V109.787C375.531 110.217 375.61 110.589 375.769 110.903C375.931 111.216 376.16 111.458 376.454 111.628C376.749 111.798 377.098 111.883 377.502 111.883C377.77 111.883 378.016 111.845 378.239 111.77C378.462 111.694 378.652 111.581 378.811 111.43C378.97 111.279 379.09 111.094 379.174 110.875L381.406 111.022C381.292 111.558 381.06 112.027 380.709 112.427C380.361 112.823 379.912 113.133 379.361 113.356C378.813 113.575 378.18 113.685 377.463 113.685Z" fill="#1769FF"/>
<path d="M365.954 108.484V113.515H363.541V101.912H365.887V106.348H365.988C366.185 105.835 366.502 105.432 366.94 105.141C367.378 104.847 367.928 104.7 368.589 104.7C369.193 104.7 369.72 104.832 370.17 105.096C370.623 105.357 370.974 105.733 371.223 106.224C371.476 106.711 371.601 107.294 371.597 107.974V113.515H369.184V108.405C369.188 107.868 369.052 107.451 368.776 107.153C368.504 106.854 368.122 106.705 367.631 106.705C367.303 106.705 367.012 106.775 366.759 106.915C366.51 107.054 366.313 107.258 366.17 107.527C366.03 107.791 365.958 108.11 365.954 108.484Z" fill="#1769FF"/>
<path d="M351.688 113.515L349.319 104.812H351.761L353.11 110.659H353.189L354.594 104.812H356.99L358.418 110.625H358.492L359.817 104.812H362.254L359.891 113.515H357.336L355.84 108.042H355.733L354.237 113.515H351.688Z" fill="#1769FF"/>
<path d="M342.113 116.778C341.807 116.778 341.52 116.753 341.252 116.704C340.987 116.659 340.768 116.6 340.594 116.529L341.138 114.727C341.422 114.814 341.677 114.861 341.903 114.869C342.134 114.876 342.332 114.823 342.498 114.71C342.668 114.597 342.806 114.404 342.912 114.132L343.053 113.764L339.932 104.812H342.47L344.271 111.203H344.362L346.181 104.812H348.736L345.354 114.455C345.191 114.923 344.97 115.331 344.691 115.679C344.415 116.03 344.066 116.3 343.643 116.489C343.219 116.682 342.71 116.778 342.113 116.778Z" fill="#1769FF"/>
<path d="M333.424 108.484V113.515H331.01V104.813H333.31V106.348H333.412C333.605 105.842 333.928 105.441 334.381 105.147C334.834 104.848 335.384 104.699 336.03 104.699C336.634 104.699 337.161 104.831 337.611 105.096C338.06 105.36 338.409 105.738 338.659 106.229C338.908 106.716 339.033 107.298 339.033 107.974V113.515H336.619V108.404C336.623 107.872 336.487 107.456 336.211 107.158C335.935 106.856 335.556 106.705 335.072 106.705C334.748 106.705 334.461 106.775 334.211 106.914C333.966 107.054 333.773 107.258 333.633 107.526C333.497 107.791 333.428 108.11 333.424 108.484Z" fill="#1769FF"/>
<path d="M321.121 113.515H318.492L322.498 101.912H325.659L329.659 113.515H327.03L324.124 104.564H324.033L321.121 113.515ZM320.957 108.954H327.166V110.869H320.957V108.954Z" fill="#1769FF"/>
<path d="M307.525 116.778C307.22 116.778 306.932 116.753 306.664 116.704C306.4 116.659 306.181 116.6 306.007 116.529L306.551 114.727C306.834 114.814 307.089 114.861 307.316 114.869C307.546 114.876 307.745 114.823 307.911 114.71C308.081 114.597 308.219 114.404 308.324 114.132L308.466 113.764L305.344 104.812H307.882L309.684 111.203H309.775L311.593 104.812H314.148L310.766 114.455C310.604 114.923 310.383 115.331 310.103 115.679C309.828 116.03 309.478 116.3 309.055 116.489C308.632 116.682 308.122 116.778 307.525 116.778Z" fill="#1769FF"/>
<path d="M300.463 113.685C299.583 113.685 298.822 113.498 298.18 113.124C297.542 112.746 297.049 112.221 296.701 111.549C296.354 110.873 296.18 110.089 296.18 109.198C296.18 108.299 296.354 107.513 296.701 106.841C297.049 106.165 297.542 105.64 298.18 105.266C298.822 104.888 299.583 104.699 300.463 104.699C301.343 104.699 302.102 104.888 302.741 105.266C303.383 105.64 303.878 106.165 304.225 106.841C304.573 107.513 304.746 108.299 304.746 109.198C304.746 110.089 304.573 110.873 304.225 111.549C303.878 112.221 303.383 112.746 302.741 113.124C302.102 113.498 301.343 113.685 300.463 113.685ZM300.475 111.815C300.875 111.815 301.209 111.702 301.477 111.475C301.746 111.245 301.948 110.931 302.084 110.535C302.223 110.138 302.293 109.687 302.293 109.181C302.293 108.674 302.223 108.223 302.084 107.827C301.948 107.43 301.746 107.116 301.477 106.886C301.209 106.656 300.875 106.54 300.475 106.54C300.07 106.54 299.731 106.656 299.455 106.886C299.183 107.116 298.977 107.43 298.837 107.827C298.701 108.223 298.633 108.674 298.633 109.181C298.633 109.687 298.701 110.138 298.837 110.535C298.977 110.931 299.183 111.245 299.455 111.475C299.731 111.702 300.07 111.815 300.475 111.815Z" fill="#1769FF"/>
<path d="M294.598 101.912V113.515H292.185V101.912H294.598Z" fill="#1769FF"/>
<path d="M282.089 116.778V104.813H284.468V106.274H284.576C284.682 106.04 284.835 105.802 285.035 105.56C285.239 105.315 285.503 105.111 285.828 104.948C286.157 104.782 286.565 104.699 287.052 104.699C287.686 104.699 288.272 104.865 288.808 105.198C289.344 105.526 289.773 106.023 290.094 106.688C290.415 107.349 290.576 108.178 290.576 109.175C290.576 110.146 290.419 110.965 290.105 111.634C289.796 112.298 289.373 112.803 288.836 113.146C288.304 113.486 287.707 113.656 287.046 113.656C286.578 113.656 286.179 113.579 285.851 113.424C285.526 113.269 285.26 113.075 285.052 112.84C284.844 112.603 284.686 112.363 284.576 112.121H284.502V116.778H282.089ZM284.451 109.164C284.451 109.681 284.523 110.132 284.667 110.518C284.81 110.903 285.018 111.203 285.29 111.418C285.562 111.63 285.892 111.736 286.281 111.736C286.674 111.736 287.006 111.628 287.278 111.413C287.55 111.194 287.756 110.892 287.896 110.506C288.039 110.117 288.111 109.67 288.111 109.164C288.111 108.661 288.041 108.219 287.902 107.838C287.762 107.456 287.556 107.158 287.284 106.943C287.012 106.727 286.678 106.62 286.281 106.62C285.889 106.62 285.556 106.724 285.284 106.931C285.016 107.139 284.81 107.434 284.667 107.815C284.523 108.197 284.451 108.646 284.451 109.164Z" fill="#1769FF"/>
<path d="M276.52 113.685C275.625 113.685 274.854 113.503 274.208 113.141C273.566 112.774 273.071 112.257 272.724 111.588C272.376 110.916 272.203 110.121 272.203 109.203C272.203 108.308 272.376 107.523 272.724 106.846C273.071 106.17 273.56 105.643 274.191 105.266C274.826 104.888 275.57 104.699 276.423 104.699C276.998 104.699 277.532 104.792 278.027 104.977C278.525 105.158 278.96 105.432 279.33 105.798C279.704 106.165 279.995 106.625 280.202 107.181C280.41 107.732 280.514 108.378 280.514 109.118V109.781H273.166V108.285H278.242C278.242 107.938 278.166 107.63 278.015 107.362C277.864 107.094 277.655 106.884 277.387 106.733C277.122 106.578 276.814 106.501 276.463 106.501C276.097 106.501 275.772 106.586 275.489 106.756C275.209 106.922 274.99 107.147 274.831 107.43C274.673 107.709 274.592 108.021 274.588 108.365V109.787C274.588 110.217 274.667 110.589 274.826 110.903C274.988 111.216 275.217 111.458 275.511 111.628C275.806 111.798 276.155 111.883 276.559 111.883C276.828 111.883 277.073 111.845 277.296 111.77C277.519 111.694 277.709 111.581 277.868 111.43C278.027 111.279 278.148 111.094 278.231 110.875L280.463 111.022C280.35 111.558 280.117 112.027 279.766 112.427C279.419 112.823 278.969 113.133 278.418 113.356C277.87 113.575 277.237 113.685 276.52 113.685Z" fill="#1769FF"/>
<path d="M265.105 113.515H260.992V101.912H265.139C266.306 101.912 267.311 102.144 268.153 102.609C268.995 103.07 269.643 103.733 270.096 104.598C270.553 105.462 270.782 106.497 270.782 107.702C270.782 108.911 270.553 109.95 270.096 110.818C269.643 111.687 268.991 112.354 268.142 112.818C267.295 113.283 266.283 113.515 265.105 113.515ZM263.445 111.413H265.003C265.728 111.413 266.338 111.285 266.833 111.028C267.331 110.767 267.705 110.365 267.955 109.821C268.208 109.273 268.334 108.567 268.334 107.702C268.334 106.845 268.208 106.144 267.955 105.6C267.705 105.056 267.333 104.656 266.838 104.399C266.344 104.142 265.734 104.014 265.009 104.014H263.445V111.413Z" fill="#1769FF"/>
<path d="M255.593 111.93L255.53 112.553C255.481 113.051 255.387 113.548 255.247 114.043C255.111 114.541 254.968 114.993 254.817 115.397C254.669 115.801 254.55 116.118 254.46 116.349H252.896C252.953 116.126 253.03 115.814 253.128 115.414C253.226 115.017 253.319 114.572 253.406 114.077C253.493 113.582 253.548 113.078 253.57 112.564L253.599 111.93H255.593Z" fill="#1769FF"/>
<path d="M247.401 113.685C246.505 113.685 245.735 113.503 245.089 113.141C244.447 112.774 243.952 112.257 243.605 111.588C243.257 110.916 243.083 110.121 243.083 109.203C243.083 108.308 243.257 107.523 243.605 106.846C243.952 106.17 244.441 105.643 245.072 105.266C245.707 104.888 246.451 104.699 247.304 104.699C247.878 104.699 248.413 104.792 248.908 104.977C249.406 105.158 249.841 105.432 250.211 105.798C250.585 106.165 250.875 106.625 251.083 107.181C251.291 107.732 251.395 108.378 251.395 109.118V109.781H244.047V108.285H249.123C249.123 107.938 249.047 107.63 248.896 107.362C248.745 107.094 248.536 106.884 248.267 106.733C248.003 106.578 247.695 106.501 247.344 106.501C246.978 106.501 246.653 106.586 246.369 106.756C246.09 106.922 245.871 107.147 245.712 107.43C245.554 107.709 245.472 108.021 245.469 108.365V109.787C245.469 110.217 245.548 110.589 245.707 110.903C245.869 111.216 246.098 111.458 246.392 111.628C246.687 111.798 247.036 111.883 247.44 111.883C247.708 111.883 247.954 111.845 248.177 111.77C248.4 111.694 248.59 111.581 248.749 111.43C248.908 111.279 249.028 111.094 249.112 110.875L251.344 111.022C251.23 111.558 250.998 112.027 250.647 112.427C250.299 112.823 249.85 113.133 249.299 113.356C248.751 113.575 248.118 113.685 247.401 113.685Z" fill="#1769FF"/>
<path d="M238.003 113.685C237.111 113.685 236.345 113.496 235.703 113.118C235.064 112.737 234.573 112.208 234.23 111.532C233.89 110.856 233.72 110.078 233.72 109.198C233.72 108.306 233.892 107.524 234.235 106.852C234.583 106.176 235.076 105.649 235.714 105.271C236.352 104.89 237.111 104.699 237.991 104.699C238.751 104.699 239.415 104.837 239.986 105.113C240.556 105.389 241.007 105.776 241.34 106.274C241.672 106.773 241.855 107.358 241.889 108.031H239.612C239.548 107.596 239.378 107.247 239.102 106.982C238.83 106.714 238.473 106.58 238.031 106.58C237.657 106.58 237.331 106.682 237.051 106.886C236.775 107.086 236.56 107.379 236.405 107.764C236.25 108.149 236.173 108.616 236.173 109.164C236.173 109.719 236.248 110.191 236.399 110.58C236.554 110.969 236.772 111.265 237.051 111.469C237.331 111.673 237.657 111.775 238.031 111.775C238.307 111.775 238.554 111.719 238.773 111.605C238.996 111.492 239.179 111.328 239.323 111.113C239.47 110.893 239.566 110.631 239.612 110.325H241.889C241.852 110.99 241.67 111.575 241.345 112.081C241.024 112.584 240.581 112.976 240.014 113.26C239.448 113.543 238.777 113.685 238.003 113.685Z" fill="#1769FF"/>
<path d="M226.56 108.484V113.515H224.146V104.813H226.447V106.348H226.549C226.741 105.842 227.064 105.441 227.517 105.147C227.971 104.848 228.52 104.699 229.166 104.699C229.77 104.699 230.297 104.831 230.747 105.096C231.196 105.36 231.546 105.738 231.795 106.229C232.044 106.716 232.169 107.298 232.169 107.974V113.515H229.755V108.404C229.759 107.872 229.623 107.456 229.347 107.158C229.072 106.856 228.692 106.705 228.209 106.705C227.884 106.705 227.597 106.775 227.347 106.914C227.102 107.054 226.909 107.258 226.77 107.526C226.634 107.791 226.564 108.11 226.56 108.484Z" fill="#1769FF"/>
<path d="M222.375 107.714C222.375 108.979 222.135 110.056 221.655 110.943C221.179 111.831 220.53 112.509 219.706 112.977C218.887 113.442 217.965 113.674 216.941 113.674C215.91 113.674 214.985 113.44 214.165 112.972C213.346 112.503 212.698 111.825 212.222 110.938C211.746 110.05 211.508 108.975 211.508 107.714C211.508 106.449 211.746 105.372 212.222 104.485C212.698 103.597 213.346 102.921 214.165 102.456C214.985 101.988 215.91 101.754 216.941 101.754C217.965 101.754 218.887 101.988 219.706 102.456C220.53 102.921 221.179 103.597 221.655 104.485C222.135 105.372 222.375 106.449 222.375 107.714ZM219.888 107.714C219.888 106.894 219.765 106.203 219.519 105.64C219.278 105.078 218.936 104.651 218.494 104.36C218.052 104.069 217.534 103.924 216.941 103.924C216.348 103.924 215.831 104.069 215.389 104.36C214.947 104.651 214.604 105.078 214.358 105.64C214.116 106.203 213.995 106.894 213.995 107.714C213.995 108.534 214.116 109.225 214.358 109.788C214.604 110.35 214.947 110.777 215.389 111.068C215.831 111.359 216.348 111.504 216.941 111.504C217.534 111.504 218.052 111.359 218.494 111.068C218.936 110.777 219.278 110.35 219.519 109.788C219.765 109.225 219.888 108.534 219.888 107.714Z" fill="#1769FF"/>
<path d="M197.878 116.778V104.813H200.258V106.274H200.366C200.471 106.04 200.624 105.802 200.824 105.56C201.028 105.315 201.293 105.111 201.618 104.948C201.946 104.782 202.354 104.699 202.841 104.699C203.476 104.699 204.061 104.865 204.598 105.198C205.134 105.526 205.563 106.023 205.884 106.688C206.205 107.349 206.365 108.178 206.365 109.175C206.365 110.146 206.209 110.965 205.895 111.634C205.585 112.298 205.162 112.803 204.626 113.146C204.093 113.486 203.497 113.656 202.836 113.656C202.367 113.656 201.969 113.579 201.64 113.424C201.315 113.269 201.049 113.075 200.841 112.84C200.634 112.603 200.475 112.363 200.366 112.121H200.292V116.778H197.878ZM200.241 109.164C200.241 109.681 200.313 110.132 200.456 110.518C200.6 110.903 200.807 111.203 201.079 111.418C201.351 111.63 201.682 111.736 202.071 111.736C202.464 111.736 202.796 111.628 203.068 111.413C203.34 111.194 203.546 110.892 203.686 110.506C203.829 110.117 203.901 109.67 203.901 109.164C203.901 108.661 203.831 108.219 203.691 107.838C203.551 107.456 203.346 107.158 203.074 106.943C202.802 106.727 202.467 106.62 202.071 106.62C201.678 106.62 201.346 106.724 201.074 106.931C200.806 107.139 200.6 107.434 200.456 107.815C200.313 108.197 200.241 108.646 200.241 109.164Z" fill="#1769FF"/>
<path d="M192.026 113.685C191.146 113.685 190.385 113.498 189.743 113.124C189.105 112.746 188.612 112.221 188.264 111.549C187.917 110.873 187.743 110.089 187.743 109.198C187.743 108.299 187.917 107.513 188.264 106.841C188.612 106.165 189.105 105.64 189.743 105.266C190.385 104.888 191.146 104.699 192.026 104.699C192.906 104.699 193.665 104.888 194.304 105.266C194.946 105.64 195.441 106.165 195.788 106.841C196.136 107.513 196.309 108.299 196.309 109.198C196.309 110.089 196.136 110.873 195.788 111.549C195.441 112.221 194.946 112.746 194.304 113.124C193.665 113.498 192.906 113.685 192.026 113.685ZM192.038 111.815C192.438 111.815 192.772 111.702 193.04 111.475C193.309 111.245 193.511 110.931 193.647 110.535C193.786 110.138 193.856 109.687 193.856 109.181C193.856 108.674 193.786 108.223 193.647 107.827C193.511 107.43 193.309 107.116 193.04 106.886C192.772 106.656 192.438 106.54 192.038 106.54C191.633 106.54 191.294 106.656 191.018 106.886C190.746 107.116 190.54 107.43 190.4 107.827C190.264 108.223 190.196 108.674 190.196 109.181C190.196 109.687 190.264 110.138 190.4 110.535C190.54 110.931 190.746 111.245 191.018 111.475C191.294 111.702 191.633 111.815 192.038 111.815Z" fill="#1769FF"/>
<path d="M186.161 101.912V113.515H183.748V101.912H186.161Z" fill="#1769FF"/>
<path d="M178.178 113.685C177.283 113.685 176.513 113.503 175.867 113.141C175.225 112.774 174.73 112.257 174.383 111.588C174.035 110.916 173.861 110.121 173.861 109.203C173.861 108.308 174.035 107.523 174.383 106.846C174.73 106.17 175.219 105.643 175.85 105.266C176.484 104.888 177.229 104.699 178.082 104.699C178.656 104.699 179.191 104.792 179.685 104.977C180.184 105.158 180.618 105.432 180.988 105.798C181.362 106.165 181.653 106.625 181.861 107.181C182.069 107.732 182.173 108.378 182.173 109.118V109.781H174.824V108.285H179.901C179.901 107.938 179.825 107.63 179.674 107.362C179.523 107.094 179.313 106.884 179.045 106.733C178.781 106.578 178.473 106.501 178.122 106.501C177.755 106.501 177.431 106.586 177.147 106.756C176.868 106.922 176.649 107.147 176.49 107.43C176.331 107.709 176.25 108.021 176.246 108.365V109.787C176.246 110.217 176.326 110.589 176.484 110.903C176.647 111.216 176.875 111.458 177.17 111.628C177.465 111.798 177.814 111.883 178.218 111.883C178.486 111.883 178.732 111.845 178.955 111.77C179.177 111.694 179.368 111.581 179.527 111.43C179.685 111.279 179.806 111.094 179.889 110.875L182.122 111.022C182.008 111.558 181.776 112.027 181.425 112.427C181.077 112.823 180.628 113.133 180.076 113.356C179.529 113.575 178.896 113.685 178.178 113.685Z" fill="#1769FF"/>
<path d="M173.258 104.812L170.215 113.515H167.496L164.454 104.812H167.003L168.81 111.039H168.901L170.703 104.812H173.258Z" fill="#1769FF"/>
<path d="M159.809 113.685C158.914 113.685 158.144 113.503 157.498 113.141C156.856 112.774 156.361 112.257 156.013 111.588C155.666 110.916 155.492 110.121 155.492 109.203C155.492 108.308 155.666 107.523 156.013 106.846C156.361 106.17 156.85 105.643 157.481 105.266C158.115 104.888 158.859 104.699 159.713 104.699C160.287 104.699 160.822 104.792 161.316 104.977C161.815 105.158 162.249 105.432 162.619 105.798C162.993 106.165 163.284 106.625 163.492 107.181C163.7 107.732 163.803 108.378 163.803 109.118V109.781H156.455V108.285H161.532C161.532 107.938 161.456 107.63 161.305 107.362C161.154 107.094 160.944 106.884 160.676 106.733C160.412 106.578 160.104 106.501 159.753 106.501C159.386 106.501 159.061 106.586 158.778 106.756C158.499 106.922 158.28 107.147 158.121 107.43C157.962 107.709 157.881 108.021 157.877 108.365V109.787C157.877 110.217 157.957 110.589 158.115 110.903C158.278 111.216 158.506 111.458 158.801 111.628C159.095 111.798 159.445 111.883 159.849 111.883C160.117 111.883 160.363 111.845 160.585 111.77C160.808 111.694 160.999 111.581 161.158 111.43C161.316 111.279 161.437 111.094 161.52 110.875L163.752 111.022C163.639 111.558 163.407 112.027 163.056 112.427C162.708 112.823 162.259 113.133 161.707 113.356C161.16 113.575 160.527 113.685 159.809 113.685Z" fill="#1769FF"/>
<path d="M148.395 113.515H144.282V101.912H148.429C149.596 101.912 150.601 102.144 151.443 102.609C152.285 103.07 152.933 103.733 153.386 104.598C153.843 105.462 154.072 106.497 154.072 107.702C154.072 108.911 153.843 109.95 153.386 110.818C152.933 111.687 152.281 112.354 151.432 112.818C150.586 113.283 149.573 113.515 148.395 113.515ZM146.735 111.413H148.293C149.018 111.413 149.628 111.285 150.123 111.028C150.621 110.767 150.995 110.365 151.245 109.821C151.498 109.273 151.624 108.567 151.624 107.702C151.624 106.845 151.498 106.144 151.245 105.6C150.995 105.056 150.623 104.656 150.129 104.399C149.634 104.142 149.024 104.014 148.299 104.014H146.735V111.413Z" fill="#1769FF"/>
<defs>
<clipPath id="clip0_1876_16295">
<rect width="110" height="123.048" fill="white"/>
</clipPath>
</defs>
</svg>
