<svg width="572" height="173" viewBox="0 0 572 173" fill="none" xmlns="http://www.w3.org/2000/svg">
<g clip-path="url(#clip0_1260_2509)">
<path d="M173.64 165.6L173.08 160.25H172.89C170.35 164.29 166.03 166.54 160.21 166.54C147.9 166.54 138.89 156.77 138.89 143.43C138.89 130.09 147.91 120.32 160.21 120.32C166.03 120.32 170.35 122.57 172.89 126.61H173.08L173.64 121.26H186.04V165.6H173.64V165.6ZM171.39 143.43C171.39 137.61 167.91 133.66 162.75 133.66C157.59 133.66 154.11 137.6 154.11 143.43C154.11 149.26 157.59 153.2 162.75 153.2C167.91 153.2 171.39 149.25 171.39 143.43Z" fill="#2EAEE9"/>
<path d="M243.34 143.43C243.34 156.77 234.32 166.54 222.02 166.54C216.2 166.54 211.88 164.29 209.34 160.25H209.15L208.59 165.6H196.19V99.85H211.22V124.08H211.41C214.04 121.64 217.61 120.32 222.02 120.32C234.33 120.32 243.34 130.09 243.34 143.43V143.43ZM228.12 143.43C228.12 137.61 224.64 133.66 219.48 133.66C214.32 133.66 210.84 137.6 210.84 143.43C210.84 149.26 214.32 153.2 219.48 153.2C224.64 153.2 228.12 149.25 228.12 143.43Z" fill="#2EAEE9"/>
<path d="M267.49 107.74C267.49 113 263.83 116.66 258.57 116.66C253.31 116.66 249.65 113 249.65 107.74C249.65 102.48 253.31 98.8199 258.57 98.8199C263.83 98.8199 267.49 102.48 267.49 107.74ZM251.05 121.27H266.08V165.61H251.05V121.27V121.27Z" fill="#2EAEE9"/>
<path d="M276.22 99.85H291.25V165.6H276.22V99.85Z" fill="#2EAEE9"/>
<path d="M314.17 146.53C315.48 151.6 320.09 153.86 326.38 153.86C332.67 153.86 337.93 152.17 341.22 148.98H341.78V162.98C338.3 165.23 332.39 166.55 325.53 166.55C309.84 166.55 298.95 156.97 298.95 143.44C298.95 129.91 308.53 120.33 322.06 120.33C335.59 120.33 344.32 128.5 344.32 141.56V146.54H314.17V146.53ZM314.17 139.2H330.89C329.95 134.97 326.76 133 322.53 133C318.77 133 315.2 135.07 314.17 139.2V139.2Z" fill="#2EAEE9"/>
<path d="M351.82 165.6V103.23H368.92V150.38H397.85V165.6H351.82V165.6Z" fill="#2EAEE9"/>
<path d="M438.06 165.6L437.5 160.25H437.31C434.77 164.29 430.45 166.54 424.63 166.54C412.32 166.54 403.31 156.77 403.31 143.43C403.31 130.09 412.33 120.32 424.63 120.32C430.45 120.32 434.77 122.57 437.31 126.61H437.5L438.06 121.26H450.46V165.6H438.06V165.6ZM435.81 143.43C435.81 137.61 432.33 133.66 427.17 133.66C422.01 133.66 418.53 137.6 418.53 143.43C418.53 149.26 422.01 153.2 427.17 153.2C432.33 153.2 435.81 149.25 435.81 143.43Z" fill="#2EAEE9"/>
<path d="M507.76 143.43C507.76 156.77 498.74 166.54 486.44 166.54C480.62 166.54 476.3 164.29 473.76 160.25H473.57L473.01 165.6H460.61V99.85H475.64V124.08H475.83C478.46 121.64 482.03 120.32 486.44 120.32C498.75 120.32 507.76 130.09 507.76 143.43ZM492.54 143.43C492.54 137.61 489.06 133.66 483.9 133.66C478.74 133.66 475.26 137.6 475.26 143.43C475.26 149.26 478.74 153.2 483.9 153.2C489.06 153.2 492.54 149.25 492.54 143.43Z" fill="#2EAEE9"/>
<path d="M546.56 123.14V136.29H546C543.18 133.47 538.58 131.87 533.23 131.87C529.38 131.87 527.31 133 527.31 135.06C527.31 136.56 528.63 137.41 533.7 137.78C544.88 138.62 549.67 142.76 549.67 151.68C549.67 161.07 542.81 166.52 530.98 166.52C523.56 166.52 517.92 165.21 514.35 162.67V149.33H514.91C518.57 152.99 523.74 154.87 530.32 154.87C533.98 154.87 536.05 153.74 536.05 151.68C536.05 149.8 534.55 148.96 529.01 148.49C518.21 147.55 513.7 143.7 513.7 135.53C513.7 126.14 521.12 120.31 532.86 120.31C538.21 120.31 543.19 121.34 546.57 123.13L546.56 123.14Z" fill="#2EAEE9"/>
<path d="M177.27 8.78006C162.34 -1.85994 151.16 -1.67994 138.41 3.26006C125.66 8.19006 111.46 20.7001 109.41 71.0201C86.91 77.3601 85.43 77.5101 85.43 77.5101L86.98 41.8301C86.98 41.8301 89.3 39.9901 91.05 38.3901C92.6 36.9001 93.83 35.1201 94.67 33.1401C96.08 29.9701 96.64 26.4801 96.29 23.0301C95.9 18.3101 94.07 13.8201 91.05 10.1701C87.5 6.57006 82.92 4.17006 77.93 3.30006C72.3 2.71006 66.62 3.97006 61.76 6.87006C57.54 10.0801 54.65 14.7301 53.64 19.9401C52.77 25.4201 53.69 31.0301 56.25 35.9601C58.94 39.6101 62.6 42.4501 66.81 44.1501L64.97 83.4201L35.12 90.3801C35.12 90.3801 3.83001 94.8801 0.580012 123.52C-0.819988 132.1 0.330013 140.9 3.90001 148.83C9.75001 160.57 20.61 169.03 33.43 171.83C49.37 174.7 77.25 168.12 80.95 141.12C83.11 127.18 84.06 113.09 83.81 98.9901L106.9 92.2501L105.13 145.1L104.46 165.47C104.46 165.47 104.15 167.2 106.91 167.31C109.68 167.42 122.17 167.56 122.17 167.56C123.57 167.31 124.6 166.12 124.64 164.7C124.68 164.41 125.01 156.08 125.44 144.92C126.31 122.22 127.59 87.7901 127.59 87.7901C127.59 87.7901 168.61 81.2601 183.33 64.4801C198.06 47.7001 192.18 19.4101 177.25 8.78006H177.27ZM61.88 136.6C61.05 145.92 53.12 152.98 43.77 152.72C26.71 153.22 18.56 140.98 20.63 126.93C22.7 112.88 33.16 112.39 40.04 110.53C46.92 108.66 63.56 104.53 63.56 104.53L61.89 136.6H61.88ZM162.95 56.1601C152.48 61.2301 141.45 65.0401 130.08 67.4901C130.08 67.4901 132.28 42.3301 135.11 34.9201C137.94 27.5101 142.51 19.6601 156.51 20.9101C161.25 21.6401 165.48 24.3101 168.17 28.2901C170.3 31.5301 171.54 35.2701 171.79 39.1401C172.78 46.1101 169.23 52.9401 162.96 56.1501L162.95 56.1601Z" fill="#2EAEE9"/>
<path fill-rule="evenodd" clip-rule="evenodd" d="M189.3 30.27C190.51 23.35 183.07 14.3 183.07 14.3L166.79 26.58C167.83 27.8 168.75 29.1301 169.51 30.5401C170.83 33.4201 171.62 36.51 171.84 39.66C172.36 44.2 170.96 48.7501 167.98 52.2201C171.83 50.1401 175.53 47.78 179.04 45.16C183.73 41.2 187.28 36.06 189.3 30.26V30.27Z" fill="url(#paint0_linear_1260_2509)"/>
<path fill-rule="evenodd" clip-rule="evenodd" d="M29.98 91.6301C34.81 90.3401 46.81 87.7401 46.81 87.7401L44.96 109.2C44.96 109.2 40.47 110.36 38.38 110.91C35.73 111.44 33.13 112.18 30.6 113.13C26.39 114.95 23.13 118.43 21.6 122.75C21.52 118.38 21.74 114 22.27 109.66C23.17 103.71 27.13 94.2001 29.97 91.6301H29.98Z" fill="url(#paint1_linear_1260_2509)"/>
</g>
<defs>
<linearGradient id="paint0_linear_1260_2509" x1="180.502" y1="50.6827" x2="169.643" y2="19.9702" gradientUnits="userSpaceOnUse">
<stop stop-color="#0863A2"/>
<stop offset="0.76" stop-color="#1CB9E9"/>
<stop offset="0.83" stop-color="#1CB9E9"/>
</linearGradient>
<linearGradient id="paint1_linear_1260_2509" x1="16.8171" y1="111.794" x2="50.0825" y2="105.926" gradientUnits="userSpaceOnUse">
<stop stop-color="#0863A2"/>
<stop offset="0.76" stop-color="#1CB9E9"/>
<stop offset="0.83" stop-color="#1CB9E9"/>
</linearGradient>
<clipPath id="clip0_1260_2509">
<rect width="571.66" height="172.44" fill="white"/>
</clipPath>
</defs>
</svg>
